inDegrees=no
num_controls=7
num_derivatives=13
num_iterations=128
num_multipliers=7
num_parameters=0
num_slacks=7
num_states=26
objective=5.036144
objective_accelerations=0.350260
objective_balance=0.021912
objective_effort=0.170713
objective_height=4.426647
objective_ligament=0.066611
solver_duration=1426.847963
status=Solve_Succeeded
success=true
DataType=double
version=3
OpenSimVersion=4.4-2022-07-23-0e9fedc
endheader
time	/jointset/ground_pelvis/pelvis_tilt/value	/jointset/ground_pelvis/pelvis_tx/value	/jointset/ground_pelvis/pelvis_ty/value	/jointset/hip_l/hip_flexion_l/value	/jointset/hip_l/hip_adduction_l/value	/jointset/hip_l/hip_rotation_l/value	/jointset/back/lumbar_extension/value	/jointset/patellofemoral_l/patellar_flexion_l/value	/jointset/knee_l/knee_flexion_l/value	/jointset/knee_l/knee_adduction_l/value	/jointset/knee_l/knee_rotation_l/value	/jointset/ankle_l/ankle_angle_l/value	/jointset/subtalar_l/subtalar_angle_l/value	/jointset/ground_pelvis/pelvis_tilt/speed	/jointset/ground_pelvis/pelvis_tx/speed	/jointset/ground_pelvis/pelvis_ty/speed	/jointset/hip_l/hip_flexion_l/speed	/jointset/hip_l/hip_adduction_l/speed	/jointset/hip_l/hip_rotation_l/speed	/jointset/back/lumbar_extension/speed	/jointset/patellofemoral_l/patellar_flexion_l/speed	/jointset/knee_l/knee_flexion_l/speed	/jointset/knee_l/knee_adduction_l/speed	/jointset/knee_l/knee_rotation_l/speed	/jointset/ankle_l/ankle_angle_l/speed	/jointset/subtalar_l/subtalar_angle_l/speed	/forceset/tau_hip_flexion_l	/forceset/tau_hip_adduction_l	/forceset/tau_hip_rotation_l	/forceset/tau_knee_flexion_l	/forceset/tau_ankle_angle_l	/forceset/tau_subtalar_angle_l	/forceset/tau_lumbar_extension	lambda_cid13_p0	lambda_cid13_p1	lambda_cid13_p2	lambda_cid13_p3	lambda_cid13_p4	lambda_cid13_p5	lambda_cid14_p0	/jointset/ground_pelvis/pelvis_tilt/accel	/jointset/ground_pelvis/pelvis_tx/accel	/jointset/ground_pelvis/pelvis_ty/accel	/jointset/hip_l/hip_flexion_l/accel	/jointset/hip_l/hip_adduction_l/accel	/jointset/hip_l/hip_rotation_l/accel	/jointset/back/lumbar_extension/accel	/jointset/patellofemoral_l/patellar_flexion_l/accel	/jointset/knee_l/knee_flexion_l/accel	/jointset/knee_l/knee_adduction_l/accel	/jointset/knee_l/knee_rotation_l/accel	/jointset/ankle_l/ankle_angle_l/accel	/jointset/subtalar_l/subtalar_angle_l/accel	gamma_cid13_p0	gamma_cid13_p1	gamma_cid13_p2	gamma_cid13_p3	gamma_cid13_p4	gamma_cid13_p5	gamma_cid14_p0
0.5	-0.1158156483961619	0.0658005010573444	0.8233856353818511	0.6126005490411525	-0.4400466908679793	-0.2956208433721629	-0.2434031687194972	0.6694026922864159	0.669402692286351	-0.1608718301549027	-0.1685550712017684	0.2096241466413714	0.0235480118544567	-0.1924400849262288	0.01382869383180414	-0.2872670803886983	1.157347525042018	-0.2562851224572638	0.644047850656764	-0.1635184266964074	1.612196426129917	1.612196426129943	0.01964312490744584	-0.03966056919263018	0.7614036882890994	0.132513019648193	-0.06394420076908068	0.02937844705322225	-0.01285846024372098	-0.2265813269851822	-0.007485458296573457	0.02399871807794464	0.09712098300121451	-35.76282251137518	-9.132115293284418	6.798392679541504	2.571597916113726	-533.0996549069775	-69.85282578499206	-31.84017789929475	0.08072144958697068	0.156399453717395	-0.2799858836844856	-0.5838397046252556	0.5157097870935845	-0.12919459999757	0.773904851008802	-1.103328344438368	-1.10332834443837	-0.1034549733372475	0.115982326130944	-0.4191378138267832	0.4454699665355255	-6.616943548334028e-08	-8.006580680588108e-07	8.36139269272617e-08	-1.638542558656895e-07	-1.407562639743366e-08	-4.075750652819793e-07	-8.557034229862574e-08
0.51	-0.1177358895922068	0.06594657181322404	0.8204995329857611	0.6241431279785538	-0.4425838146331181	-0.289188674867189	-0.2449994787446053	0.6854673386239656	0.6854673386239022	-0.160680671246667	-0.168946888215479	0.2172160744520959	0.02489481413449263	-0.1915932220518213	0.01538113392801988	-0.2898927113273705	1.151006673780536	-0.2511197760666744	0.6422876002935878	-0.1557306376841858	1.600511706633582	1.600511706633609	0.01859708790860121	-0.03869823364188923	0.7568776312605192	0.1368255644554393	-0.06604475029359287	0.03118559523449057	-0.01280569263577879	-0.2289287727880784	-0.01078225431721031	0.02424814635575007	0.09892953747178466	-36.88780774868388	-9.010949890797395	6.741935019109456	3.013322348027468	-534.8966358732205	-69.70610250968092	-31.12260098304636	0.08892244607089884	0.1539861113860392	-0.2447525843082501	-0.6834305762218763	0.5199864911933715	-0.2142497246584196	0.7831570224808881	-1.234196598169841	-1.234196598169631	-0.1040247662106093	0.08706870418317818	-0.4850056871842005	0.4209782312316394	-8.29726758132577e-08	-7.535545849970427e-07	1.534823058590266e-07	-1.466732222440862e-07	-3.690943329628482e-08	-4.245814147885808e-07	-9.024563166493625e-08
0.52	-0.1196472114115728	0.06610803093482817	0.8175889941032144	0.6356174538554755	-0.4450686770491183	-0.2827770707598877	-0.2465175226603604	0.7014085071973459	0.7014085071973111	-0.160499742048966	-0.1693289399668185	0.2247596084845704	0.02628410816128354	-0.1906562095892528	0.01690636697670417	-0.292154377680017	1.143696912946583	-0.245832852630001	0.639934971123178	-0.1478652048258614	1.587500873299691	1.58750087329972	0.01759718278765525	-0.037707516705634	0.7517249326395162	0.1410113689991889	-0.06814529981811093	0.03299274341572416	-0.01275292502739202	-0.2312762185910331	-0.01407905033786784	0.02449757463349112	0.1007380919423709	-38.0184938604968	-8.888566797901186	6.685032979537325	3.450147853559888	-536.7911858494663	-69.58659555915979	-30.39991509695425	0.09875136721925361	0.1509580442110721	-0.2071929664793437	-0.7776216191194855	0.5400251963104238	-0.2476703614442999	0.7894336202293761	-1.368551111949557	-1.368551111949557	-0.09422859775746462	0.1216586032337589	-0.5444661323113652	0.4201219138361635	-1.05572464163547e-07	-6.940081724159932e-07	2.50860580337403e-07	-1.231452187065079e-07	-7.096593453027763e-08	-4.480712366744993e-07	-9.714953220678064e-08
0.53	-0.121548536250328	0.06628458595843413	0.814657718168499	0.6470136042205201	-0.4475001587302511	-0.2763914786150096	-0.2479568239286703	0.7172128631650103	0.7172128631649827	-0.1603289784100382	-0.1697005864638876	0.2322484534810183	0.0277144657214188	-0.1895923468750703	0.01839802979296823	-0.2940375185058827	1.135375425062391	-0.2404497115709985	0.6370940208973421	-0.1399926649223013	1.573158965183288	1.573158965183315	0.01655679024075149	-0.0366137328696149	0.745942894517042	0.145031283626876	-0.07016157808945465	0.03477144622881537	-0.01271941575509001	-0.2336826015237526	-0.01726507133003199	0.02465338751539463	0.1024658247193768	-39.11671158636258	-8.724110744235441	6.613312074746648	3.898478438136798	-538.6692497401814	-69.39879592574799	-29.68118455716529	0.1126706620905147	0.1472570501177261	-0.1693987979036908	-0.8830673309055382	0.5395427390473294	-0.3158082486803344	0.7865217624745855	-1.498693763721165	-1.498693763721384	-0.1088392285557794	0.1044985717897572	-0.6102771817134223	0.3886679779525209	-1.132633595040091e-07	-6.363827913440091e-07	2.928699720241981e-07	-1.072018658219622e-07	-8.280384637958014e-08	-4.433208055610956e-07	-9.738249677515399e-08
0.54	-0.1234387290742337	0.06647585494015927	0.8117095059940721	0.6583218087151557	-0.4498773921651212	-0.270036996151499	-0.2493173282805322	0.7328674634310608	0.7328674634310456	-0.1601685976256393	-0.1700610430630069	0.2396764371903405	0.02918417077597448	-0.1884298066179516	0.0198491586005469	-0.2955416256222623	1.126107738864753	-0.2349832033778996	0.6337130348504244	-0.1321058215365099	1.557549732977466	1.557549732977491	0.01552061187789233	-0.03546953711343332	0.7395526752146485	0.14888086788327	-0.07217785636076407	0.03655014904188344	-0.01268590648267455	-0.2360889844564836	-0.02045109232220821	0.02480920039725827	0.1041935574964261	-40.21732898191012	-8.558781912173094	6.540935532560336	4.334861675479111	-540.5932294840349	-69.23234336261677	-28.96951029430117	0.1184868758065693	0.1428512424739682	-0.1313862245821068	-0.9668612818087314	0.5566986231297025	-0.3556775256607163	0.7922943166756489	-1.622015929833297	-1.622015929833296	-0.09338576094848933	0.1317409872662287	-0.6661023682952401	0.3860558395775318	-1.044593093867897e-07	-5.808828068352465e-07	2.736201742394556e-07	-9.965004131949514e-08	-7.005948912241646e-08	-4.073258392143987e-07	-9.023485133032528e-08
0.55	-0.1253168564309635	0.06668141967216133	0.808748165580401	0.6695327472840434	-0.4521995454951703	-0.2637189345851663	-0.2505988953872006	0.7483597578688836	0.748359757868912	-0.1600184696530592	-0.1704097130034804	0.2470375486803831	0.03069154482093375	-0.1871768632864048	0.02125614093162434	-0.2966600308293017	1.115921093616911	-0.2294372158528853	0.6298084887727405	-0.124214137532458	1.540703037706093	1.540703037706091	0.0145068542003805	-0.03425720213990933	0.7325712081204478	0.1525609680984427	-0.07411207494453827	0.03819481832027814	-0.01266964127434479	-0.2385901356054647	-0.02353710611095139	0.02495344674262363	0.1058483438860598	-41.2884063969552	-8.392110702631477	6.46664109878824	4.768042752326937	-542.5359328537813	-69.09141179053	-28.26442913708983	0.1315216087751514	0.1384555919680591	-0.09211634796974433	-1.068394778694308	0.5550978764768937	-0.4215339201450732	0.7866247819398564	-1.746896590639949	-1.746896590644019	-0.1051575847740196	0.1171116262850204	-0.7289554022170557	0.3540984332593255	-9.474935353669239e-08	-5.239716166325173e-07	2.513361293315506e-07	-9.184557131637356e-08	-5.735520488097975e-08	-3.688034157945602e-07	-8.253909782647828e-08
